<svg width="50" height="60" viewBox="0 0 50 60">
<rect y="1.91797" width="50" height="34.8409" rx="3" fill="#363636"/>
<path d="M14.3027 18.0724C16.6227 18.1324 18.3827 18.7024 19.5827 19.7824C20.8027 20.8424 21.4127 22.2524 21.4127 24.0124C21.4127 25.1924 21.1327 26.2424 20.5727 27.1624C20.0127 28.0624 19.1727 28.7724 18.0527 29.2924C16.9527 29.8124 15.6227 30.0724 14.0627 30.0724C12.5427 30.0724 11.1127 29.8224 9.7727 29.3224C8.4327 28.8024 7.3927 28.1124 6.6527 27.2524L7.4327 26.0824C8.1127 26.8424 9.0327 27.4624 10.1927 27.9424C11.3727 28.4224 12.6627 28.6624 14.0627 28.6624C15.9227 28.6624 17.3527 28.2524 18.3527 27.4324C19.3527 26.5924 19.8527 25.4524 19.8527 24.0124C19.8527 22.5524 19.3427 21.4124 18.3227 20.5924C17.3027 19.7724 15.7727 19.3624 13.7327 19.3624H12.4127V18.2524L18.6227 10.3024H7.4327V8.92236H20.6027V10.0024L14.3027 18.0724ZM32.8612 30.0724C31.2612 30.0724 29.8312 29.6424 28.5712 28.7824C27.3312 27.9024 26.3612 26.6624 25.6612 25.0624C24.9812 23.4624 24.6412 21.5824 24.6412 19.4224C24.6412 17.2624 24.9812 15.3824 25.6612 13.7824C26.3612 12.1824 27.3312 10.9524 28.5712 10.0924C29.8312 9.21236 31.2612 8.77236 32.8612 8.77236C34.4612 8.77236 35.8812 9.21236 37.1212 10.0924C38.3812 10.9524 39.3512 12.1824 40.0312 13.7824C40.7312 15.3824 41.0812 17.2624 41.0812 19.4224C41.0812 21.5824 40.7312 23.4624 40.0312 25.0624C39.3512 26.6624 38.3812 27.9024 37.1212 28.7824C35.8812 29.6424 34.4612 30.0724 32.8612 30.0724ZM32.8612 28.6624C34.1812 28.6624 35.3412 28.3024 36.3412 27.5824C37.3612 26.8424 38.1512 25.7824 38.7112 24.4024C39.2712 23.0024 39.5512 21.3424 39.5512 19.4224C39.5512 17.5024 39.2712 15.8524 38.7112 14.4724C38.1512 13.0724 37.3612 12.0124 36.3412 11.2924C35.3412 10.5524 34.1812 10.1824 32.8612 10.1824C31.5412 10.1824 30.3712 10.5524 29.3512 11.2924C28.3512 12.0124 27.5712 13.0724 27.0112 14.4724C26.4512 15.8524 26.1712 17.5024 26.1712 19.4224C26.1712 21.3424 26.4512 23.0024 27.0112 24.4024C27.5712 25.7824 28.3512 26.8424 29.3512 27.5824C30.3712 28.3024 31.5412 28.6624 32.8612 28.6624Z" fill="white"/>
<path d="M0 34.7676H50V56.6539C50 58.3108 48.6569 59.6539 47 59.6539H3C1.34315 59.6539 0 58.3108 0 56.6539V34.7676Z" fill="#242424"/>
<path d="M16.8086 47.938C15.8438 47.6606 15.1406 47.3208 14.6992 46.9185C14.2617 46.5122 14.043 46.0122 14.043 45.4185C14.043 44.7466 14.3105 44.1919 14.8457 43.7544C15.3848 43.313 16.084 43.0923 16.9434 43.0923C17.5293 43.0923 18.0508 43.2056 18.5078 43.4321C18.9688 43.6587 19.3242 43.9712 19.5742 44.3696C19.8281 44.7681 19.9551 45.2036 19.9551 45.6763H18.8242C18.8242 45.1606 18.6602 44.7563 18.332 44.4634C18.0039 44.1665 17.541 44.0181 16.9434 44.0181C16.3887 44.0181 15.9551 44.1411 15.6426 44.3872C15.334 44.6294 15.1797 44.9673 15.1797 45.4009C15.1797 45.7485 15.3262 46.0435 15.6191 46.2856C15.916 46.5239 16.418 46.7427 17.125 46.9419C17.8359 47.1411 18.3906 47.3618 18.7891 47.604C19.1914 47.8423 19.4883 48.1216 19.6797 48.4419C19.875 48.7622 19.9727 49.1392 19.9727 49.5728C19.9727 50.2642 19.7031 50.8188 19.1641 51.2368C18.625 51.6509 17.9043 51.8579 17.002 51.8579C16.416 51.8579 15.8691 51.7466 15.3613 51.5239C14.8535 51.2974 14.4609 50.9888 14.1836 50.5981C13.9102 50.2075 13.7734 49.7642 13.7734 49.2681H14.9043C14.9043 49.7837 15.0938 50.1919 15.4727 50.4927C15.8555 50.7896 16.3652 50.938 17.002 50.938C17.5957 50.938 18.0508 50.8169 18.3672 50.5747C18.6836 50.3325 18.8418 50.0024 18.8418 49.5845C18.8418 49.1665 18.6953 48.8442 18.4023 48.6177C18.1094 48.3872 17.5781 48.1606 16.8086 47.938ZM23.8809 51.8579C23.0215 51.8579 22.3223 51.5767 21.7832 51.0142C21.2441 50.4478 20.9746 49.6919 20.9746 48.7466V48.5474C20.9746 47.9185 21.0938 47.3579 21.332 46.8657C21.5742 46.3696 21.9102 45.9829 22.3398 45.7056C22.7734 45.4243 23.2422 45.2837 23.7461 45.2837C24.5703 45.2837 25.2109 45.5552 25.668 46.0981C26.125 46.6411 26.3535 47.4185 26.3535 48.4302V48.8813H22.0586C22.0742 49.5063 22.2559 50.0122 22.6035 50.3989C22.9551 50.7817 23.4004 50.9731 23.9395 50.9731C24.3223 50.9731 24.6465 50.895 24.9121 50.7388C25.1777 50.5825 25.4102 50.3755 25.6094 50.1177L26.2715 50.6333C25.7402 51.4497 24.9434 51.8579 23.8809 51.8579ZM23.7461 46.1743C23.3086 46.1743 22.9414 46.3345 22.6445 46.6548C22.3477 46.9712 22.1641 47.4165 22.0938 47.9907H25.2695V47.9087C25.2383 47.3579 25.0898 46.9321 24.8242 46.6313C24.5586 46.3267 24.1992 46.1743 23.7461 46.1743ZM32.9688 48.6411C32.9688 49.606 32.748 50.3833 32.3066 50.9731C31.8652 51.563 31.2676 51.8579 30.5137 51.8579C29.7441 51.8579 29.1387 51.6138 28.6973 51.1255V54.1782H27.6133V45.4009H28.6035L28.6562 46.104C29.0977 45.5571 29.7109 45.2837 30.4961 45.2837C31.2578 45.2837 31.8594 45.5708 32.3008 46.145C32.7461 46.7192 32.9688 47.5181 32.9688 48.5415V48.6411ZM31.8848 48.5181C31.8848 47.8032 31.7324 47.2388 31.4277 46.8247C31.123 46.4106 30.7051 46.2036 30.1738 46.2036C29.5176 46.2036 29.0254 46.4946 28.6973 47.0767V50.106C29.0215 50.6841 29.5176 50.9731 30.1855 50.9731C30.7051 50.9731 31.1172 50.7681 31.4219 50.3579C31.7305 49.9438 31.8848 49.3306 31.8848 48.5181ZM34.375 51.1724C34.375 50.9849 34.4297 50.8286 34.5391 50.7036C34.6523 50.5786 34.8203 50.5161 35.043 50.5161C35.2656 50.5161 35.4336 50.5786 35.5469 50.7036C35.6641 50.8286 35.7227 50.9849 35.7227 51.1724C35.7227 51.3521 35.6641 51.5024 35.5469 51.6235C35.4336 51.7446 35.2656 51.8052 35.043 51.8052C34.8203 51.8052 34.6523 51.7446 34.5391 51.6235C34.4297 51.5024 34.375 51.3521 34.375 51.1724Z" fill="white"/>
</svg>
